<svg width="59" height="53" fill="none" xmlns="http://www.w3.org/2000/svg"><path d="M47.958 34.223c-.347.116-.704.227-1.067.336-.805-2.559-1.89-5.28-3.218-8.09 1.267-2.744 2.31-5.43 3.092-7.972.65.19 1.282.389 1.89.599 5.88 2.034 9.468 5.042 9.468 7.36 0 2.468-3.875 5.673-10.165 7.767zm-2.61 5.197c.636 3.228.727 6.146.305 8.428-.378 2.05-1.14 3.417-2.08 3.964-2.003 1.165-6.286-.35-10.905-4.343a38.989 38.989 0 0 1-1.598-1.464c1.79-1.968 3.58-4.256 5.327-6.797 3.072-.274 5.975-.721 8.607-1.333.13.526.245 1.041.344 1.545zM18.953 51.61c-1.957.695-3.515.715-4.457.17-2.005-1.163-2.838-5.647-1.702-11.663.13-.689.286-1.396.464-2.12 2.604.579 5.485.995 8.564 1.246 1.759 2.486 3.6 4.771 5.456 6.772-.406.394-.81.768-1.211 1.12-2.466 2.166-4.937 3.703-7.114 4.476zM9.786 34.209c-3.099-1.064-5.658-2.448-7.412-3.957C.798 28.895.002 27.548.002 26.455c0-2.325 3.45-5.29 9.204-7.307a39.03 39.03 0 0 1 2.187-.691c.795 2.6 1.839 5.317 3.098 8.065-1.276 2.789-2.334 5.55-3.137 8.18-.54-.157-1.064-.321-1.568-.494zm3.073-21.018c-1.195-6.133-.402-10.76 1.595-11.92 2.126-1.238 6.827.526 11.782 4.947.317.282.635.578.953.884-1.846 1.992-3.67 4.26-5.413 6.732-2.989.278-5.85.726-8.48 1.324a40.032 40.032 0 0 1-.437-1.967zm27.412 6.802a86.833 86.833 0 0 0-1.932-3.194c2.028.258 3.97.6 5.795 1.018a58.466 58.466 0 0 1-2.034 5.499 95.415 95.415 0 0 0-1.829-3.323zM29.093 9.05a58.243 58.243 0 0 1 3.74 4.536 79.683 79.683 0 0 0-7.512-.002 60.096 60.096 0 0 1 3.771-4.534zm-11.25 10.96a80.628 80.628 0 0 0-1.795 3.302 60.45 60.45 0 0 1-2.02-5.526 60.906 60.906 0 0 1 5.762-.994 80.205 80.205 0 0 0-1.948 3.217zm2.005 16.301a57.53 57.53 0 0 1-5.857-.946 61.449 61.449 0 0 1 2.06-5.637 80.787 80.787 0 0 0 3.797 6.584zm9.32 7.74a61.166 61.166 0 0 1-3.824-4.598c1.217.048 2.457.073 3.718.073 1.296 0 2.576-.03 3.836-.086a57.96 57.96 0 0 1-3.73 4.611zM42.126 29.63a58.074 58.074 0 0 1 2.134 5.618 57.424 57.424 0 0 1-5.929 1.015c.66-1.05 1.311-2.134 1.951-3.25a86.848 86.848 0 0 0 1.844-3.383zm-4.195 2.021a89.484 89.484 0 0 1-3.05 4.943 81.372 81.372 0 0 1-5.819.205c-1.977 0-3.901-.062-5.754-.183a77.457 77.457 0 0 1-3.106-4.95 76.85 76.85 0 0 1-2.711-5.145 77.426 77.426 0 0 1 2.703-5.148 76.74 76.74 0 0 1 3.081-4.929 76.538 76.538 0 0 1 5.787-.218c1.968 0 3.908.075 5.798.22a82.282 82.282 0 0 1 3.062 4.912 89.64 89.64 0 0 1 2.74 5.124 82.333 82.333 0 0 1-2.731 5.169zm5.6-30.463c2.128 1.233 2.956 6.207 1.619 12.728-.086.416-.182.84-.286 1.27-2.637-.612-5.5-1.067-8.497-1.35-1.746-2.498-3.556-4.77-5.372-6.736.488-.472.976-.922 1.461-1.347C37.148 1.65 41.533.03 43.531 1.188z" fill="#fff"/></svg>