<svg width="30" height="30" fill="none" xmlns="http://www.w3.org/2000/svg"><path d="M0 9.375v11.25C0 25.802 4.198 30 9.375 30h11.25C25.802 30 30 25.802 30 20.625V9.375C30 4.198 25.802 0 20.625 0H9.375C4.198 0 0 4.198 0 9.375zm20.625-6.563a6.57 6.57 0 0 1 6.563 6.563v11.25a6.57 6.57 0 0 1-6.563 6.563H9.375a6.57 6.57 0 0 1-6.563-6.563V9.375a6.57 6.57 0 0 1 6.563-6.563h11.25z" fill="#000"/><path d="M7.5 15a7.5 7.5 0 1 0 15 0 7.5 7.5 0 0 0-15 0zm12.188 0A4.694 4.694 0 0 1 15 19.688 4.693 4.693 0 0 1 10.312 15 4.693 4.693 0 0 1 15 10.312 4.694 4.694 0 0 1 19.688 15zM7.937 6.937a1 1 0 1 0-1.999 0 1 1 0 0 0 1.999 0z" fill="#000"/></svg>